<?xml version="1.0" encoding="UTF-8"?>
<svg version="1.1" xmlns="http://www.w3.org/2000/svg" width="883" height="883">
<path d="M0 0 C1.12921875 -0.04930664 1.12921875 -0.04930664 2.28125 -0.09960938 C15.82618049 -0.22335874 29.10006403 7.6380897 41.125 13.25 C42.74844383 14.00273262 44.37206386 14.75508532 45.99584961 15.50708008 C50.1519821 17.43423216 54.3041323 19.36980255 58.45501709 21.30822754 C60.78625008 22.39608531 63.11870539 23.48127 65.45166016 24.56542969 C90.37428885 36.1515736 115.09783832 48.10883322 139.33544922 61.08007812 C142.21110306 62.61715132 145.09209717 64.14401541 147.97265625 65.671875 C159.92838331 72.03751605 171.73767925 78.5955507 183.40600586 85.47436523 C189.09776471 88.82863066 194.8237419 92.08965329 200.625 95.25 C241.48029087 117.64736995 280.65011106 143.86404779 318.875 170.4375 C319.64666504 170.97342773 320.41833008 171.50935547 321.21337891 172.06152344 C332.50709035 179.91314991 343.75451036 187.82759672 354.85009766 195.95751953 C356.15868101 196.91394975 357.47064163 197.86578383 358.78662109 198.81201172 C371.72550894 208.12453744 380.89006094 218.20108991 383.85546875 234.3125 C385.4764168 244.66714162 386.32797431 255.13253759 387.3125 265.5625 C387.42171783 266.71065186 387.53093567 267.85880371 387.64346313 269.04174805 C388.76802678 280.90432903 389.8539992 292.76989353 390.796875 304.6484375 C390.85651428 305.39453278 390.91615356 306.14062805 390.9776001 306.90933228 C394.13751832 347.86940582 395.21101039 388.77108211 395.13574219 429.84545898 C395.12435498 436.11462318 395.13113347 442.38361736 395.14261913 448.65277576 C395.19025027 479.30004827 394.65552444 509.83957124 392.875 540.4375 C392.83506172 541.13019108 392.79512344 541.82288216 392.75397491 542.53656387 C392.27286864 550.82272366 391.70047499 559.09956697 391.0625 567.375 C390.97984894 568.47034058 390.89719788 569.56568115 390.81204224 570.69421387 C389.55829574 587.21726053 388.05832691 603.70928266 386.3125 620.1875 C386.1626918 621.63635086 386.1626918 621.63635086 386.00985718 623.11447144 C384.01531644 642.1991462 380.7012299 657.92766456 365.19042969 670.83984375 C361.24052642 673.96253107 357.17419208 676.92024553 353.08251953 679.85351562 C350.84665878 681.45783597 348.62345692 683.0784621 346.40234375 684.703125 C316.0391432 706.8352009 284.76896264 728.21887616 252.66357422 747.73632812 C249.60025502 749.60510839 246.55145406 751.49624042 243.50390625 753.390625 C221.61865785 766.97468383 199.35402102 779.86454827 176.875 792.4375 C175.78654785 793.04819336 174.6980957 793.65888672 173.57666016 794.28808594 C155.00306286 804.69395109 136.21424137 814.62404858 117.22369385 824.24688721 C114.76463177 825.49344847 112.30685639 826.74252432 109.84912109 827.99169922 C86.76831955 839.71141855 63.55565873 850.98160294 39.875 861.4375 C38.71242676 861.95473633 37.54985352 862.47197266 36.35205078 863.00488281 C33.15442173 864.42697532 29.95343798 865.84104807 26.75 867.25 C25.83774658 867.65307373 24.92549316 868.05614746 23.9855957 868.47143555 C15.9505892 871.96281434 8.95566455 873.7990622 0.1875 873.8125 C-0.63427734 873.83699219 -1.45605469 873.86148438 -2.30273438 873.88671875 C-15.94632944 873.95012818 -28.53036875 866.77742693 -40.6875 861.25 C-41.56214905 860.8542276 -42.4367981 860.4584552 -43.33795166 860.0506897 C-60.62550318 852.22398435 -77.72818519 844.04934004 -94.73077393 835.62353516 C-97.27779981 834.36180709 -99.82610766 833.10269195 -102.37451172 831.84375 C-140.71410574 812.88981581 -140.71410574 812.88981581 -158.38769531 802.96435547 C-161.55717202 801.19643651 -164.74251603 799.45836773 -167.9296875 797.72265625 C-183.56986637 789.19127904 -198.9620721 780.31753642 -214.24267578 771.15771484 C-217.42215351 769.26015428 -220.61831747 767.39330752 -223.82006836 765.53369141 C-234.42477455 759.36656292 -244.8019352 752.83651652 -255.17724609 746.29296875 C-257.82793784 744.62448628 -260.48498326 742.96681008 -263.14453125 741.3125 C-275.76049276 733.42159902 -288.10292342 725.13355242 -300.4375 716.8125 C-301.70847534 715.95585754 -301.70847534 715.95585754 -303.00512695 715.08190918 C-319.92555649 703.66803617 -336.59960276 691.92509052 -353.09912109 679.91113281 C-354.38150541 678.97832108 -355.66548902 678.04770065 -356.95166016 677.12011719 C-372.45257881 665.93370286 -381.59975713 655.13842891 -384.77450562 635.8062439 C-386.0595772 627.12135304 -386.80662401 618.36329012 -387.625 609.625 C-387.73172028 608.50801727 -387.83844055 607.39103455 -387.94839478 606.24020386 C-389.0595642 594.60190521 -390.11330405 582.9589833 -391.04296875 571.3046875 C-391.10285477 570.55945831 -391.16274078 569.81422913 -391.22444153 569.04641724 C-394.48522065 526.97632246 -395.50434369 484.94674743 -395.44285583 442.76011658 C-395.43741943 438.87999372 -395.43504953 434.99987696 -395.4329834 431.11975098 C-395.402888 394.85484436 -395.10276936 358.71591268 -392.35931396 322.53997803 C-392.11659208 319.32617338 -391.8847707 316.11171235 -391.65478516 312.89697266 C-390.63219788 298.72892057 -389.44264225 284.58096495 -388.125 270.4375 C-387.99964874 269.07123474 -387.99964874 269.07123474 -387.87176514 267.67736816 C-387.39195811 262.45254362 -386.8938878 257.23009534 -386.36520386 252.00997925 C-386.20864054 250.4554652 -386.05588533 248.90056145 -385.90750122 247.34524536 C-384.28447938 230.53943256 -380.17348574 215.61544942 -366.7421875 204.4453125 C-361.95602038 200.77353653 -357.04600349 197.29407407 -352.10546875 193.83544922 C-349.3472083 191.88848184 -346.61940852 189.90070048 -343.88964844 187.9140625 C-327.5681479 176.04388029 -310.99907181 164.50880694 -294.125 153.4375 C-293.19880859 152.82825684 -292.27261719 152.21901367 -291.31835938 151.59130859 C-238.37906922 116.78248066 -184.0693593 84.55275759 -127.80078125 55.38671875 C-124.10129157 53.46909626 -120.41157092 51.53470902 -116.73046875 49.58203125 C-90.34786406 35.61797696 -63.38231712 23.00210811 -36.03471375 11.05456543 C-32.8275546 9.64880663 -29.63695378 8.21998807 -26.47460938 6.71582031 C-17.50374313 2.45220849 -9.97136782 0.0745368 0 0 Z " fill="#27B859" transform="translate(432.125,4.5625)"/>
<path d="M0 0 C7.45586377 2.76812853 13.31705167 9.78352277 18.6953125 15.40625 C21.35290319 18.03354243 24.1436177 20.45788273 26.96582031 22.90551758 C30.44347597 25.96462565 33.79573472 29.1532641 37.15625 32.33984375 C38.6430278 33.74370288 40.13001126 35.14734422 41.6171875 36.55078125 C42.7323877 37.60410645 42.7323877 37.60410645 43.87011719 38.67871094 C47.33391978 41.94779824 50.80483205 45.20917856 54.28125 48.46484375 C54.8801001 49.02824463 55.4789502 49.59164551 56.09594727 50.17211914 C58.79849335 52.70057835 61.52001451 55.15225271 64.39453125 57.484375 C67.96743295 60.51953173 69.01240035 61.93673074 69.46875 66.65234375 C69.37724961 70.7927363 68.09881123 72.86066667 65.09375 75.77734375 C59.12345315 78.76249217 51.7687448 76.77734375 45.09375 76.77734375 C45.09375 117.03734375 45.09375 157.29734375 45.09375 198.77734375 C87.99375 198.77734375 130.89375 198.77734375 175.09375 198.77734375 C175.04734375 188.88507813 175.0009375 178.9928125 174.953125 168.80078125 C174.93269026 162.53905833 174.91326923 156.27735954 174.8984375 150.015625 C174.8746996 140.07364655 174.84678825 130.13180367 174.79199219 120.18994141 C174.75210409 112.94943408 174.72631238 105.70903669 174.71739602 98.46842253 C174.71218456 94.63506371 174.69994986 90.8020194 174.67082977 86.96876144 C174.64362923 83.35885379 174.63531419 79.74938944 174.64131927 76.13938904 C174.63969844 74.18671 174.61819987 72.23407896 174.59606934 70.28152466 C174.64674934 59.50339043 174.64674934 59.50339043 179.09375 54.77734375 C182.14301857 53.25270946 185.32993171 53.60367933 188.67700195 53.58447266 C189.45930176 53.57629517 190.24160156 53.56811768 191.04760742 53.55969238 C193.64240754 53.53483351 196.23715295 53.51832131 198.83203125 53.50390625 C199.7175939 53.49858257 200.60315655 53.4932589 201.51555443 53.4877739 C206.20266225 53.46104036 210.88974342 53.44166599 215.5769043 53.42724609 C220.4193993 53.41059615 225.261214 53.3658164 230.10345173 53.31487465 C233.82580858 53.28122698 237.54800344 53.26967143 241.27049828 53.26401901 C243.05550525 53.25729981 244.84050131 53.24206032 246.62536049 53.2181282 C249.12490991 53.18652517 251.62261789 53.18643187 254.12231445 53.19384766 C254.8586058 53.17744232 255.59489716 53.16103699 256.35350037 53.14413452 C260.34961637 53.19262495 261.92742478 53.63717912 265.02946472 56.25131226 C266.05128593 57.50169785 266.05128593 57.50169785 267.09375 58.77734375 C267.42375 59.10734375 267.75375 59.43734375 268.09375 59.77734375 C268.19138161 61.66433643 268.21746339 63.55504158 268.21679783 65.44455814 C268.21878888 66.68315462 268.22077993 67.9217511 268.22283131 69.1978808 C268.21997772 70.59017776 268.21703211 71.98247453 268.21400452 73.37477112 C268.21444009 74.83993849 268.21531474 76.30510579 268.21659368 77.77027267 C268.21884139 81.81558188 268.21481362 85.86086486 268.20981562 89.90617073 C268.20551523 94.2613404 268.20695725 98.61650849 268.2077179 102.97167969 C268.20824339 110.52366552 268.20509391 118.07564275 268.19948006 125.62762642 C268.19136853 136.54665782 268.18875019 147.46568504 268.18749207 158.38471913 C268.185301 176.09819727 268.17863943 193.81167083 268.16918945 211.52514648 C268.16001675 228.73673479 268.15293522 245.94832185 268.14868164 263.15991211 C268.14828756 264.75009317 268.14828756 264.75009317 268.14788551 266.3723991 C268.14658051 271.69047375 268.1453168 277.00854841 268.14407361 282.32662308 C268.13369929 326.47686649 268.11607949 370.62710488 268.09375 414.77734375 C269.33511719 414.7309375 270.57648438 414.68453125 271.85546875 414.63671875 C273.49737171 414.59918954 275.13930077 414.56279061 276.78125 414.52734375 C277.59787109 414.49382812 278.41449219 414.4603125 279.25585938 414.42578125 C283.39667007 414.35872359 285.5212385 414.41887601 289.11328125 416.66796875 C292.18007233 419.93437346 292.45209353 422.27266191 292.36328125 426.76171875 C291.7319127 431.4832575 287.84222775 434.02077717 284.44921875 436.94921875 C280.16641877 440.68367657 276.02772322 444.55406511 271.90625 448.46484375 C266.29863895 453.76495442 260.67164379 459.04039277 254.98657227 464.25732422 C251.98500833 467.01642719 249.00815441 469.79898907 246.05078125 472.60546875 C227.62223019 490.08775824 227.62223019 490.08775824 221.65625 491.71484375 C213.27140623 489.50830592 207.13668041 481.97963852 201.25 475.9375 C198.61403097 473.29675567 195.82273648 470.88481437 192.9921875 468.45703125 C190.53617656 466.28401746 188.2615036 463.95791566 185.96582031 461.61816406 C184.17120954 459.85351028 182.32331255 458.20551196 180.4140625 456.56640625 C175.22082133 452.05189517 170.256468 447.30613224 165.2734375 442.5625 C162.13323887 439.58727557 159.0002994 436.64841732 155.65625 433.90234375 C151.91233322 430.79763227 151.24298268 429.14530997 150.71875 424.33984375 C151.15496638 420.19578811 152.18505272 418.68604103 155.09375 415.77734375 C161.06404685 412.79219533 168.4187552 414.77734375 175.09375 414.77734375 C175.09375 374.18734375 175.09375 333.59734375 175.09375 291.77734375 C132.19375 291.77734375 89.29375 291.77734375 45.09375 291.77734375 C45.12855469 301.66960937 45.16335938 311.561875 45.19921875 321.75390625 C45.2145448 328.01562734 45.22911059 334.27733487 45.24023438 340.5390625 C45.25803773 350.48100423 45.27897125 360.42286971 45.32006836 370.36474609 C45.34998443 377.60525297 45.36932826 384.845698 45.37601548 392.08626497 C45.37992402 395.91956321 45.3891002 399.75268455 45.41094017 403.58592606 C45.43134029 407.19578259 45.43757674 410.80538975 45.43307304 414.41529846 C45.43428865 416.36795231 45.45041235 418.32057916 45.4670105 420.27316284 C45.42791423 431.3593179 45.42791423 431.3593179 42.09375 435.77734375 C38.68119418 438.49092801 34.5521818 438.0799152 30.37524414 438.08374023 C29.60240585 438.09206375 28.82956757 438.10038727 28.03330994 438.10896301 C25.48179063 438.13303365 22.93052701 438.14183072 20.37890625 438.1484375 C18.60298079 438.15740489 16.82705611 438.16652675 15.0511322 438.17579651 C11.32972376 438.19228022 7.60840523 438.1999857 3.88696289 438.20288086 C-0.87929547 438.20826922 -5.64470815 438.24597015 -10.4107275 438.29162502 C-14.07820214 438.32137804 -17.74547249 438.328604 -21.41305733 438.32960701 C-23.17014 438.33381152 -24.92722317 438.34625517 -26.68418694 438.36712456 C-29.14287335 438.39400855 -31.59959085 438.38922423 -34.05834961 438.37670898 C-35.14404739 438.39896042 -35.14404739 438.39896042 -36.25167847 438.42166138 C-40.12849889 438.36552005 -41.77248574 437.88470078 -44.83424377 435.42738342 C-47.89210277 431.51646484 -48.03100752 428.71830155 -48.02929783 423.89526844 C-48.03128888 422.65965666 -48.03327993 421.42404487 -48.03533131 420.15099031 C-48.03247808 418.77243838 -48.02953248 417.39388664 -48.02650452 416.01533508 C-48.02694035 414.5566912 -48.02781547 413.09804739 -48.02909368 411.639404 C-48.03133634 407.62141654 -48.02732046 403.60345559 -48.02231562 399.58547151 C-48.01800805 395.25624044 -48.01945776 390.92701093 -48.0202179 386.59777832 C-48.02074293 379.0938462 -48.01759822 371.58992275 -48.01198006 364.08599281 C-48.00386236 353.23649159 -48.00124956 342.38699456 -47.99999207 331.53749063 C-47.99780197 313.9360428 -47.99114304 296.33459961 -47.98168945 278.7331543 C-47.97251424 261.63224307 -47.96543394 244.53133311 -47.96118164 227.43041992 C-47.96078756 225.84998802 -47.96078756 225.84998802 -47.96038551 224.2376282 C-47.9590805 218.95206296 -47.95781678 213.66649771 -47.95657361 208.38093245 C-47.94620232 164.51306634 -47.92858516 120.64520529 -47.90625 76.77734375 C-49.14761719 76.82375 -50.38898438 76.87015625 -51.66796875 76.91796875 C-53.30987171 76.95549796 -54.95180077 76.99189689 -56.59375 77.02734375 C-57.41037109 77.06085938 -58.22699219 77.094375 -59.06835938 77.12890625 C-63.20917007 77.19596391 -65.3337385 77.13581149 -68.92578125 74.88671875 C-71.99257233 71.62031404 -72.26459353 69.28202559 -72.17578125 64.79296875 C-71.54403128 60.06857769 -67.64859066 57.52836204 -64.25390625 54.59765625 C-60.01842007 50.9042086 -55.92104485 47.08127709 -51.84375 43.21484375 C-50.34789222 41.80183348 -48.85179383 40.3890779 -47.35546875 38.9765625 C-46.23857666 37.92154541 -46.23857666 37.92154541 -45.09912109 36.84521484 C-36.07129665 28.33200252 -27.00522455 19.85338522 -17.83984375 11.48828125 C-15.98800098 9.77699112 -14.16323663 8.03547878 -12.37890625 6.25390625 C-5.34053947 -0.60398958 -5.34053947 -0.60398958 0 0 Z " fill="#FDFEFE" transform="translate(321.90625,196.22265625)"/>
<path d="M0 0 C0.66 0.33 1.32 0.66 2 1 C0.73548068 2.31858428 -0.53685475 3.62967631 -1.8125 4.9375 C-2.52019531 5.66839844 -3.22789063 6.39929688 -3.95703125 7.15234375 C-6 9 -6 9 -9 10 C-7.61811547 6.78956118 -6.07578097 4.95063635 -3.375 2.75 C-2.74335937 2.22921875 -2.11171875 1.7084375 -1.4609375 1.171875 C-0.73777344 0.59179688 -0.73777344 0.59179688 0 0 Z " fill="#65D08B" transform="translate(65,211)"/>
</svg>
