<?xml version="1.0" standalone="no"?>
<!DOCTYPE svg PUBLIC "-//W3C//DTD SVG 20010904//EN"
 "http://www.w3.org/TR/2001/REC-SVG-20010904/DTD/svg10.dtd">
<svg version="1.0" xmlns="http://www.w3.org/2000/svg"
 width="512.000000pt" height="512.000000pt" viewBox="0 0 512.000000 512.000000"
 preserveAspectRatio="xMidYMid meet">

<g transform="translate(0.000000,512.000000) scale(0.100000,-0.100000)"
fill="#fff" stroke="none">
<path d="M1085 5106 c-188 -30 -411 -122 -561 -233 -284 -211 -472 -531 -514
-875 -8 -67 -10 -491 -8 -1493 4 -1299 5 -1405 22 -1475 65 -274 169 -466 355
-651 149 -150 297 -243 486 -307 208 -71 88 -66 1645 -70 1036 -2 1428 0 1494
8 433 58 796 320 987 715 63 130 100 253 119 391 8 66 10 458 8 1494 -4 1303
-5 1410 -22 1480 -65 274 -169 466 -355 651 -203 204 -435 321 -721 364 -130
20 -2808 20 -2935 1z m799 -1280 c18 -8 44 -29 58 -47 13 -19 188 -395 388
-837 200 -441 367 -799 371 -795 4 5 137 366 295 803 159 437 298 808 309 824
44 64 58 66 392 66 288 0 304 -1 323 -20 28 -28 34 -63 17 -96 -9 -16 -56 -69
-106 -119 l-91 -90 0 -955 0 -955 91 -90 c88 -88 119 -129 119 -159 0 -8 -12
-28 -26 -45 l-26 -31 -476 0 c-505 1 -495 0 -521 48 -21 40 -3 73 100 177 l99
101 -2 708 -3 707 -305 -838 c-335 -922 -327 -903 -406 -903 -52 0 -96 29
-119 76 -10 22 -186 408 -392 859 l-373 820 0 -557 0 -556 167 -267 c181 -290
189 -309 139 -352 l-27 -23 -395 0 -395 0 -24 25 c-48 47 -41 61 175 348 l200
267 0 719 0 720 -155 186 c-170 203 -179 222 -130 270 l24 25 336 0 c264 0
343 -3 369 -14z"/>
</g>
</svg>
