<svg xmlns="http://www.w3.org/2000/svg" xmlns:xlink="http://www.w3.org/1999/xlink" viewBox="0 0 4098 2304"><defs><linearGradient id="a" x1="3043.8" x2="3043.8" y1="1610.74" y2="1391.76" gradientUnits="userSpaceOnUse"><stop offset="0" stop-color="#e5ebf9"/><stop offset=".98" stop-color="#6186db"/></linearGradient><linearGradient id="c" x1="3115.4" x2="3233.58" y1="1649.09" y2="1530.91" xlink:href="#a"/><linearGradient id="d" x1="2974.03" x2="2840.86" y1="1623.93" y2="1623.93" xlink:href="#a"/><linearGradient id="b" x1="3044.05" x2="3044.05" y1="1791.1" y2="1764.02" gradientUnits="userSpaceOnUse"><stop offset="0" stop-color="#edf1f9"/><stop offset="1" stop-color="#b1c3ed"/></linearGradient><linearGradient id="e" y1="1985.5" y2="1817.64" xlink:href="#b"/><linearGradient id="f" x1="2856.94" x2="2758.94" y1="1840.59" y2="1840.59" xlink:href="#a"/><linearGradient id="g" x1="2733.2" x2="2733.2" y1="1997.72" y2="1669.21" xlink:href="#a"/></defs><path fill="none" d="M0 0h4098v2304H0z"/><path fill="transparent" d="M3390 952.05c0-110.43-89.52-199.95-199.95-199.95-100.54 0-182.05-81.51-182.05-182.05v-17.9c0-110.43-89.52-199.95-199.95-199.95H1305.03c-110.43 0-199.95 89.52-199.95 199.95 0 110.43 89.52 199.95 199.95 199.95h4.7c110.43 0 199.95 89.52 199.95 199.95 0 110.43-89.52 199.95-199.95 199.95H907.94c-110.43 0-199.95 89.52-199.95 199.95 0 110.43 89.52 199.95 199.95 199.95h74.09c110.43 0 199.95 89.52 199.95 199.95 0 110.43 89.52 199.95 199.95 199.95h1793.83c110.43 0 199.95-89.52 199.95-199.95 0-110.43-89.52-199.95-199.95-199.95h-101.23c-110.43 0-199.95-89.52-199.95-199.95 0-110.43 89.52-199.95 199.95-199.95h115.52c110.43 0 199.95-89.52 199.95-199.95Z"/><rect width="178.72" height="57.39" x="1067.72" y="1633.02" fill="#d7e1f8" rx="5.53" ry="5.53"/><rect width="178.72" height="57.39" x="3083.2" y="950.46" fill="#d7e1f8" rx="5.53" ry="5.53"/><rect width="178.72" height="57.39" x="2993.84" y="874.69" fill="#d7e1f8" rx="5.53" ry="5.53"/><rect width="178.72" height="57.39" x="2205.74" y="1009.57" fill="#d7e1f8" rx="5.53" ry="5.53"/><rect width="178.72" height="57.39" x="2106.9" y="933.81" fill="#d7e1f8" rx="5.53" ry="5.53"/><rect width="178.72" height="57.39" x="2303.27" y="933.81" fill="#d7e1f8" rx="5.53" ry="5.53"/><rect width="178.72" height="57.39" x="1389.74" y="489.75" fill="#d7e1f8" rx="5.53" ry="5.53"/><rect width="178.72" height="57.39" x="1589" y="489.75" fill="#d7e1f8" rx="5.53" ry="5.53"/><path fill="#74819d" d="M2334.97 1746.01h106.58v155.54h-106.58z"/><path fill="#74819d" d="M2536.36 1882.9h-296.2c-10.3 0-18.65 8.35-18.65 18.65h333.51c0-10.3-8.35-18.65-18.65-18.65Z"/><rect width="865.5" height="509" x="1955.5" y="1249.45" fill="#a3abbe" rx="14.26" ry="14.26"/><path fill="#172c5c" d="M2167.22 1068.57h442.06v834.66h-442.06z" transform="rotate(90 2388.255 1485.905)"/><path fill="#5e86e2" d="M2755.19 1331.87h-48.04a.49.49 0 0 1 0-.98h48.04a.49.49 0 0 1 0 .98ZM2755.19 1340.72h-48.04a.49.49 0 0 1 0-.98h48.04a.49.49 0 0 1 0 .98ZM2755.19 1349.57h-48.04a.49.49 0 0 1 0-.98h48.04a.49.49 0 0 1 0 .98ZM2755.19 1358.43h-48.04a.49.49 0 0 1 0-.98h48.04a.49.49 0 0 1 0 .98ZM2755.19 1367.28h-48.04a.49.49 0 0 1 0-.98h48.04a.49.49 0 0 1 0 .98ZM2755.19 1376.13h-48.04a.49.49 0 0 1 0-.98h48.04a.49.49 0 0 1 0 .98ZM2755.19 1384.99h-48.04a.49.49 0 0 1 0-.98h48.04a.49.49 0 0 1 0 .98ZM2755.19 1393.84h-48.04a.49.49 0 0 1 0-.98h48.04a.49.49 0 0 1 0 .98ZM2755.19 1402.69h-48.04a.49.49 0 0 1 0-.98h48.04a.49.49 0 0 1 0 .98ZM2755.19 1411.55h-48.04a.49.49 0 0 1 0-.98h48.04a.49.49 0 0 1 0 .98ZM2755.19 1420.4h-48.04a.49.49 0 0 1 0-.98h48.04a.49.49 0 0 1 0 .98ZM2755.19 1429.25h-48.04a.49.49 0 0 1 0-.98h48.04a.49.49 0 0 1 0 .98Z"/><path fill="#87a4ea" d="M2280.95 1344.17h-27.57a3.45 3.45 0 0 1 0-6.9h27.57a3.45 3.45 0 0 1 0 6.9Z"/><path fill="#5e86e2" d="M2237.5 1344.17h-133.66a3.45 3.45 0 0 1 0-6.9h133.66a3.45 3.45 0 0 1 0 6.9Z"/><path fill="#87a4ea" d="M2081.34 1344.17h-29.78a3.45 3.45 0 0 1 0-6.9h29.78a3.45 3.45 0 0 1 0 6.9ZM2392.33 1370.56h-35.07a3.45 3.45 0 0 1 0-6.9h35.07a3.45 3.45 0 0 1 0 6.9Z"/><path fill="#5e86e2" d="M2331.42 1370.56h-222.99a3.45 3.45 0 0 1 0-6.9h222.99a3.45 3.45 0 0 1 0 6.9Z"/><path fill="#87a4ea" d="M2081.34 1370.56h-29.78a3.45 3.45 0 0 1 0-6.9h29.78a3.45 3.45 0 0 1 0 6.9Z"/><path fill="#5e86e2" d="M2455.86 1396.96h-34.63a3.45 3.45 0 0 1 0-6.9h34.63a3.45 3.45 0 0 1 0 6.9Z"/><path fill="#87a4ea" d="M2381.52 1396.96h-201.15a3.45 3.45 0 0 1 0-6.9h201.15a3.45 3.45 0 0 1 0 6.9Z"/><path fill="#5e86e2" d="M2146.85 1396.96h-38.42a3.45 3.45 0 0 1 0-6.9h38.42a3.45 3.45 0 0 1 0 6.9Z"/><path fill="#87a4ea" d="M2512.76 1423.36h-35.07a3.45 3.45 0 0 1 0-6.9h35.07a3.45 3.45 0 0 1 0 6.9Z"/><path fill="#5e86e2" d="M2442.84 1423.36h-334.41a3.45 3.45 0 0 1 0-6.9h334.41a3.45 3.45 0 0 1 0 6.9ZM2081.34 1423.36h-29.78a3.45 3.45 0 0 1 0-6.9h29.78a3.45 3.45 0 0 1 0 6.9Z"/><path fill="#87a4ea" d="M2392.33 1581.74h-35.07a3.45 3.45 0 0 1 0-6.9h35.07a3.45 3.45 0 0 1 0 6.9Z"/><path fill="#5e86e2" d="M2331.42 1581.74h-222.99a3.45 3.45 0 0 1 0-6.9h222.99a3.45 3.45 0 0 1 0 6.9Z"/><path fill="#87a4ea" d="M2081.34 1581.74h-29.78a3.45 3.45 0 0 1 0-6.9h29.78a3.45 3.45 0 0 1 0 6.9Z"/><path fill="#5e86e2" d="M2455.86 1608.13h-34.63a3.45 3.45 0 0 1 0-6.9h34.63a3.45 3.45 0 0 1 0 6.9Z"/><path fill="#87a4ea" d="M2381.52 1608.13h-201.15a3.45 3.45 0 0 1 0-6.9h201.15a3.45 3.45 0 0 1 0 6.9Z"/><path fill="#5e86e2" d="M2146.85 1608.13h-38.42a3.45 3.45 0 0 1 0-6.9h38.42a3.45 3.45 0 0 1 0 6.9Z"/><path fill="#87a4ea" d="M2512.76 1634.53h-35.07a3.45 3.45 0 0 1 0-6.9h35.07a3.45 3.45 0 0 1 0 6.9Z"/><path fill="#5e86e2" d="M2442.84 1634.53h-334.41a3.45 3.45 0 0 1 0-6.9h334.41a3.45 3.45 0 0 1 0 6.9Z"/><path fill="#87a4ea" d="M2081.34 1634.53h-29.78a3.45 3.45 0 0 1 0-6.9h29.78a3.45 3.45 0 0 1 0 6.9Z"/><path fill="#5e86e2" d="M2473.28 1449.75h-30a3.45 3.45 0 0 1 0-6.9h30a3.45 3.45 0 0 1 0 6.9Z"/><path fill="#87a4ea" d="M2408.87 1449.75h-243.06a3.45 3.45 0 0 1 0-6.9h243.06a3.45 3.45 0 0 1 0 6.9ZM2137.14 1449.75h-28.71a3.45 3.45 0 0 1 0-6.9h28.71a3.45 3.45 0 0 1 0 6.9ZM2535.04 1476.15h-32.64a3.45 3.45 0 0 1 0-6.9h32.64a3.45 3.45 0 0 1 0 6.9Z"/><path fill="#5e86e2" d="M2473.28 1476.15h-269.53a3.45 3.45 0 0 1 0-6.9h269.53a3.45 3.45 0 0 1 0 6.9Z"/><path fill="#87a4ea" d="M2169.34 1476.15h-32.2a3.45 3.45 0 0 1 0-6.9h32.2a3.45 3.45 0 0 1 0 6.9ZM2589.74 1502.55h-39.7a3.45 3.45 0 0 1 0-6.9h39.7a3.45 3.45 0 0 1 0 6.9Z"/><path fill="#5e86e2" d="M2518.72 1502.55h-285.41a3.45 3.45 0 0 1 0-6.9h285.41a3.45 3.45 0 0 1 0 6.9Z"/><path fill="#87a4ea" d="M2203.75 1502.55h-33.09a3.45 3.45 0 0 1 0-6.9h33.09a3.45 3.45 0 0 1 0 6.9Z"/><path fill="#5e86e2" d="M2542.1 1555.34h-30a3.45 3.45 0 0 1 0-6.9h30a3.45 3.45 0 0 1 0 6.9Z"/><path fill="#87a4ea" d="M2477.69 1555.34h-311.88a3.45 3.45 0 0 1 0-6.9h311.88a3.45 3.45 0 0 1 0 6.9Z"/><path fill="#5e86e2" d="M2137.14 1555.34h-28.71a3.45 3.45 0 0 1 0-6.9h28.71a3.45 3.45 0 0 1 0 6.9ZM2603.86 1528.94h-32.65a3.45 3.45 0 0 1 0-6.9h32.65a3.45 3.45 0 0 1 0 6.9Z"/><path fill="#87a4ea" d="M2542.1 1528.94h-338.35a3.45 3.45 0 0 1 0-6.9h338.35a3.45 3.45 0 0 1 0 6.9ZM2169.34 1528.94h-32.2a3.45 3.45 0 0 1 0-6.9h32.2a3.45 3.45 0 0 1 0 6.9Z"/><circle cx="2388.25" cy="1733.77" r="12.24" fill="#d1d5de" transform="rotate(-80.78 2388.353 1733.756)"/><path fill="#a0b7ea" d="M860.99 658.62h950.57v683.53H860.99z"/><path fill="#c0cff1" d="M1023.43 554.01h625.7v892.74h-625.7z" transform="rotate(90 1336.28 1000.38)"/><path fill="#96aee7" d="M1782.65 689.34c-.46 0-.92-.18-1.28-.53-.71-.71-.71-1.85 0-2.56l26.92-26.92c.71-.71 1.85-.71 2.56 0s.71 1.85 0 2.56l-26.92 26.92c-.35.35-.81.53-1.28.53ZM889.91 689.34c-.46 0-.92-.18-1.28-.53l-26.92-26.92c-.71-.71-.71-1.85 0-2.56s1.85-.71 2.56 0l26.92 26.92c.71.71.71 1.85 0 2.56-.35.35-.81.53-1.28.53ZM862.99 1341.95c-.46 0-.92-.18-1.28-.53-.71-.71-.71-1.85 0-2.56l26.92-26.92c.71-.71 1.85-.71 2.56 0s.71 1.85 0 2.56l-26.92 26.92c-.35.35-.81.53-1.28.53ZM1809.57 1341.95c-.46 0-.92-.18-1.28-.53l-26.92-26.92c-.71-.71-.71-1.85 0-2.56s1.85-.71 2.56 0l26.92 26.92c.71.71.71 1.85 0 2.56-.35.35-.81.53-1.28.53Z"/><path fill="#fff" d="M1397.45 930.73h233.84v334.14h-233.84z"/><circle cx="1514.37" cy="946.11" r="4.68" fill="#c0cff1"/><path fill="#f7f7f7" d="M1605.88 988.09h-185.3c-.67 0-1.2-.54-1.2-1.2s.54-1.2 1.2-1.2h185.3c.67 0 1.2.54 1.2 1.2s-.54 1.2-1.2 1.2ZM1605.88 1000.38h-185.3c-.67 0-1.2-.54-1.2-1.2s.54-1.2 1.2-1.2h185.3c.67 0 1.2.54 1.2 1.2s-.54 1.2-1.2 1.2ZM1605.88 1012.67h-185.3c-.67 0-1.2-.54-1.2-1.2s.54-1.2 1.2-1.2h185.3c.67 0 1.2.54 1.2 1.2s-.54 1.2-1.2 1.2ZM1605.88 1024.97h-185.3c-.67 0-1.2-.54-1.2-1.2s.54-1.2 1.2-1.2h185.3c.67 0 1.2.54 1.2 1.2s-.54 1.2-1.2 1.2ZM1605.88 1037.26h-185.3c-.67 0-1.2-.54-1.2-1.2s.54-1.2 1.2-1.2h185.3c.67 0 1.2.54 1.2 1.2s-.54 1.2-1.2 1.2ZM1605.88 1049.55h-185.3c-.67 0-1.2-.54-1.2-1.2s.54-1.2 1.2-1.2h185.3c.67 0 1.2.54 1.2 1.2s-.54 1.2-1.2 1.2ZM1510.98 1061.84h-90.39c-.67 0-1.2-.54-1.2-1.2s.54-1.2 1.2-1.2h90.39c.67 0 1.2.54 1.2 1.2s-.54 1.2-1.2 1.2ZM1605.88 1075.34h-185.3c-.67 0-1.2-.54-1.2-1.2s.54-1.2 1.2-1.2h185.3c.67 0 1.2.54 1.2 1.2s-.54 1.2-1.2 1.2ZM1605.88 1087.63h-185.3c-.67 0-1.2-.54-1.2-1.2s.54-1.2 1.2-1.2h185.3c.67 0 1.2.54 1.2 1.2s-.54 1.2-1.2 1.2ZM1605.88 1099.93h-185.3c-.67 0-1.2-.54-1.2-1.2s.54-1.2 1.2-1.2h185.3c.67 0 1.2.54 1.2 1.2s-.54 1.2-1.2 1.2ZM1605.88 1112.22h-185.3c-.67 0-1.2-.54-1.2-1.2s.54-1.2 1.2-1.2h185.3c.67 0 1.2.54 1.2 1.2s-.54 1.2-1.2 1.2ZM1605.88 1124.51h-185.3c-.67 0-1.2-.54-1.2-1.2s.54-1.2 1.2-1.2h185.3c.67 0 1.2.54 1.2 1.2s-.54 1.2-1.2 1.2ZM1510.98 1136.81h-90.39c-.67 0-1.2-.54-1.2-1.2s.54-1.2 1.2-1.2h90.39c.67 0 1.2.54 1.2 1.2s-.54 1.2-1.2 1.2Z"/><path fill="#fff" d="M1040.15 783.73h233.84v334.14h-233.84z" transform="rotate(-1.07 1154.262 948.449)"/><path fill="#c0cff1" d="M1158.93 799.04a4.682 4.682 0 0 1-4.6 4.77 4.682 4.682 0 0 1-4.77-4.6c-.05-2.59 2.01-4.72 4.6-4.77s4.72 2.01 4.77 4.6Z"/><path fill="#f7f7f7" d="m1246.53 839.4-185.27 3.45c-.67.01-1.21-.52-1.23-1.18-.01-.67.52-1.21 1.18-1.23l185.27-3.45c.67-.01 1.21.52 1.23 1.18.01.67-.52 1.21-1.18 1.23ZM1246.76 851.69l-185.27 3.45c-.67.01-1.21-.52-1.23-1.18s.52-1.21 1.18-1.23l185.27-3.45c.67-.01 1.21.52 1.23 1.18.01.67-.52 1.21-1.18 1.23ZM1246.99 863.98l-185.27 3.45c-.67.01-1.21-.52-1.23-1.18-.01-.67.52-1.21 1.18-1.23l185.27-3.45c.67-.01 1.21.52 1.23 1.18s-.52 1.21-1.18 1.23ZM1247.21 876.27l-185.27 3.45c-.67.01-1.21-.52-1.23-1.18-.01-.67.52-1.21 1.18-1.23l185.27-3.45c.67-.01 1.21.52 1.23 1.18.01.67-.52 1.21-1.18 1.23ZM1247.44 888.56l-185.27 3.45c-.67.01-1.21-.52-1.23-1.18-.01-.67.52-1.21 1.18-1.23l185.27-3.45c.67-.01 1.21.52 1.23 1.18s-.52 1.21-1.18 1.23ZM1247.67 900.85l-185.27 3.45c-.67.01-1.21-.52-1.23-1.18s.52-1.21 1.18-1.23l185.27-3.45c.67-.01 1.21.52 1.23 1.18.01.67-.52 1.21-1.18 1.23ZM1247.67 913.4l-185.27 3.45c-.67.01-1.21-.52-1.23-1.18-.01-.67.52-1.21 1.18-1.23l185.27-3.45c.67-.01 1.21.52 1.23 1.18s-.52 1.21-1.18 1.23ZM1248.15 926.63l-185.27 3.45c-.67.01-1.21-.52-1.23-1.18s.52-1.21 1.18-1.23l185.27-3.45c.67-.01 1.21.52 1.23 1.18.01.67-.52 1.21-1.18 1.23ZM1248.38 938.92l-185.27 3.45c-.67.01-1.21-.52-1.23-1.18-.01-.67.52-1.21 1.18-1.23l185.27-3.45c.67-.01 1.21.52 1.23 1.18.01.67-.52 1.21-1.18 1.23ZM1248.61 951.21l-185.27 3.45c-.67.01-1.21-.52-1.23-1.18s.52-1.21 1.18-1.23l185.27-3.45c.67-.01 1.21.52 1.23 1.18.01.67-.52 1.21-1.18 1.23ZM1248.84 963.51l-185.27 3.45c-.67.01-1.21-.52-1.23-1.18-.01-.67.52-1.21 1.18-1.23l185.27-3.45c.67-.01 1.21.52 1.23 1.18s-.52 1.21-1.18 1.23ZM1249.07 975.8l-185.27 3.45c-.67.01-1.21-.52-1.23-1.18-.01-.67.52-1.21 1.18-1.23l185.27-3.45c.67-.01 1.21.52 1.23 1.18.01.67-.52 1.21-1.18 1.23ZM1154.41 989.85l-90.38 1.68c-.67.01-1.21-.52-1.23-1.18-.01-.67.52-1.21 1.18-1.23l90.38-1.68c.67-.01 1.21.52 1.23 1.18.01.67-.52 1.21-1.18 1.23Z"/><path fill="#74819d" d="M1997.05 1882.9h351.79c7.33 0 13.28 5.95 13.28 13.28v5.4h-378.35v-5.4c0-7.33 5.95-13.28 13.28-13.28Z"/><rect width="1846.22" height="50.22" x="1351.03" y="1901.58" fill="#a3abbe" rx="25.11" ry="25.11"/><path fill="#a5bbe5" d="M2029.36 1846.52s19.93 22.67 25.01 29.38c5.09 6.71 1.36 19.88-12.51 6.47s-20.09-25.96-31.67-26.39c-11.58-.44-19.68 6.73-19.68 6.73l16.19-21.28 22.64 5.09Z"/><path fill="#a1b7db" d="M2011.16 1846.52s19.93 22.67 25.01 29.38c5.09 6.71 1.36 19.88-12.51 6.47s-20.09-25.96-31.67-26.39c-11.58-.44-19.68 6.73-19.68 6.73l16.19-21.28 22.64 5.09Z"/><path fill="#5b667d" d="M2531.95 1901.58h-113.84c0-28.24 25.5-51.14 56.92-51.14s56.92 22.89 56.92 51.14Z"/><path fill="#afc3f1" d="M2020.21 1856.96c11.32-.76 22.59 5.83 41.15 23.4 18.56 17.56 25.64 1.66 16.72-10.09-8.92-11.76-36.24-45.48-53.21-44.49-13.01.76-39.02 11.24-50.49 16.11l-2.05 46.29c14.67-13.95 39.17-30.62 47.89-31.21Z"/><path fill="#6186db" d="M1991.2 1831.68c1.09.48 1.61 1.7 1.24 2.84l-21.18 65.08-.67 1.98h-74.61c-61.55-19.76-146.22-47.38-169.45-56.92-35.52-14.6-63.04-26.84-120.34-124.92-4.87-8.29-9.49-16.24-13.93-23.81l30.51-208.35c13.69 16.96 28.1 38.22 43.81 64.92 69.4 117.98 98.51 181.12 172.78 213.07 67.54 29.01 139.38 60.62 151.85 66.11Z"/><path fill="#afc3f1" d="M2478.26 1827.33c-14.69-1.34-35.34 2.46-48.29 5.36l-21.79 66.91c10.81-2.24 19.15-6.2 24.97-10.97 9.02-7.4 22.23-30.42 41.89-31.11 19.66-.69 33.76 7.98 50.41 35.28 13.07 21.42 23.83-3.93 6.71-30.07-17.12-26.14-31-33.31-53.9-35.39Z"/><path fill="#6186db" d="m2430.04 1832.5-.08.19-21.76 66.92-.62 1.97h-74.66c-61.53-19.75-146.22-47.32-169.46-56.92-35.47-14.6-63.04-26.8-120.36-124.92-7.4-12.66-14.37-24.51-20.76-35.47-11.97-20.45-22.23-37.91-30.79-52.55-.12.7-.19 1.51-.35 2.52l-1.74 13.32c-.43 3.18-.85 6.62-1.32 10.07-.23 1.78-.43 3.6-.66 5.42-.23 1.82-.46 3.52-.66 5.23l-30.4 233.31-6.51 50.19h-420.16l6.08-50.19 10.38-84.77c-50.54-18.51-49.49-80.97-40.97-119.97 5.31-24.28 11.04-53.98 17.43-86.39.15-.77.31-1.59.5-2.4 1.16-5.96 2.32-11.97 3.56-18.08 4.1-20.68 8.48-42.17 13.21-63.82 13.86-63.86 16.69-104.13 133.25-104.13h251.24c65.21 0 109.63 12.51 179.06 130.46 69.39 117.99 98.55 181.15 172.75 213.1 74.27 31.91 153.77 66.92 153.77 66.92Z"/><path fill="#172c5c" d="M1758.33 1379.46c19.89-2.78 24.98-8.33 31.46-22.67 4.53-10.03 10.31-24.33 13.39-32.04-15.45-1.22-27.65-15.39-27.65-32.73s13.34-32.85 29.8-32.85c2.22 0 4.37.29 6.45.79l1.06 41.88a3.21 3.21 0 0 0 3.21 3.13h7.66c1.82 0 3.38-1.24 3.77-3.01.96-4.38 2.8-13.24 4.53-24.5 2.96-19.29 5.63-45.63 3.12-68.72 0 0 22.67 14.34 20.36-13.42 0 0 44.47 47.65 77.62 8.61.93 6.08 1.65 12.85 2.13 20.46 15.94-20.42 37.41-59.46 18.34-106.34-28.22-69.4-89.76-19.43-89.76-19.43-100.86-93.46-147.59 37.48-147.59 37.48-16.66-14.81-43.49-6.48-50.89 22.9-7.4 29.38 43.49 172.35 51.82 196.87 5.69 16.75 13.54 22.91 24.27 24.26 4.99.63 10.59.22 16.9-.66Z"/><path fill="#afc3f1" d="M1934.86 1283.91c-4 72.77-37.64 100.15-60.44 100.15-1.16 0-2.22-.05-3.28-.19v.05l-.87 22.36-.63 15.76h-132.83l4.58-41.93c5.01.63 10.6.24 16.92-.63 19.9-2.8 25.01-8.34 31.47-22.7 4.53-10.02 10.31-24.34 13.4-32.05-15.47-1.2-27.66-15.37-27.66-32.72s13.35-32.82 29.78-32.82c2.22 0 4.39.29 6.46.77l1.01 39.37a5.79 5.79 0 0 0 5.79 5.64h2.76c3.22 0 6.01-2.23 6.67-5.38 1.02-4.83 2.55-12.62 4.01-22.13 2.99-19.28 5.64-45.64 3.13-68.73 0 0 22.65 14.36 20.34-13.4 0 0 44.48 47.62 77.64 8.58.92 6.12 1.64 12.87 2.12 20.48.96 15.71.92 35.04-.39 59.52Z"/><path fill="#172c5c" d="m1871.15 1383.92-.87 22.36-58.46-29.93-.05-.05s.14 0 .34.05c.39.05.96.1 1.78.24.53.05 1.16.14 1.83.24 4 .48 10.51 1.35 17.45 2.27 2.31.29 4.72.58 7.13.87 2.55.34 5.01.67 7.37.96 1.16.14 2.31.29 3.42.43 2.17.29 4.24.53 5.98.77 1.3.14 2.89.34 4.63.58h.1c1.16.14 2.36.29 3.66.48.63.05 1.3.14 2.02.24 1.16.14 2.41.29 3.66.48Z"/><path fill="url(#a)" d="M3106.49 1496.11c0 51.45-28.08 93.19-62.72 93.19-30.41 0-55.81-32.31-61.47-75.12h31.66l-32.85-19.73c.24-18.84 4.23-36.31 10.91-50.8 11.27-24.56 30.29-40.66 51.75-40.66 18.06 0 34.28 11.33 45.73 29.45l-21.58 19.2 28.62-5.84c6.32 14.49 9.96 31.78 9.96 50.32Z"/><path fill="url(#c)" d="M3232.88 1589.29c-3.99 11.03-10.73 22.24-19.97 32.37l-29.39-4.05 18.3 14.61c-27.78 23.07-62.01 27.96-79.71 10.2-18.36-18.36-12.46-54.31 12.7-82.51v-.06c1.43-1.61 2.86-3.1 4.41-4.65 8.53-8.53 18.01-15.26 27.6-19.91l11.09 20.09v-24.56c18.96-6.14 37.14-4.11 48.53 7.33 11.92 11.92 13.59 31.3 6.44 51.15Z"/><path fill="url(#d)" d="M2969.42 1594.72c-.24 32.55-26.65 58.85-59.26 58.85-1.31 0-2.56-.06-3.82-.12l1.13-21.52-14.13 19.2c-8.59-2.5-16.4-6.98-22.83-12.88-12.04-10.79-19.56-26.47-19.56-43.94H2969l.42.42Z"/><path fill="#272b59" d="M3043.79 1821.46a.37.37 0 0 1-.37-.37v-418.11c0-.2.16-.37.37-.37s.37.16.37.37v418.11c0 .2-.16.37-.37.37Z"/><path fill="#272b59" d="M3043.79 1722.21c-.1 0-.19-.03-.26-.11a.374.374 0 0 1 0-.52c.5-.49 49.91-49.91 78.34-79.4 28.44-29.49 103.58-103.59 104.34-104.34.15-.14.38-.14.52 0s.14.38 0 .52c-.76.75-75.9 74.85-104.33 104.33-28.43 29.49-77.85 78.91-78.34 79.41-.07.07-.17.11-.26.11ZM3043.77 1669.49c-.1 0-.19-.04-.26-.11l-74.35-74.41a.374.374 0 0 1 0-.52c.14-.14.38-.14.52 0l74.35 74.41c.14.14.14.38 0 .52-.07.07-.16.11-.26.11ZM3043.77 1547.58c-.11 0-.22-.05-.29-.15-.12-.16-.09-.4.07-.52l62.6-47.17c.16-.12.4-.09.52.07s.09.4-.07.52l-62.6 47.17c-.07.05-.14.08-.22.08ZM3043.77 1479.76c-.07 0-.15-.02-.21-.07l-51.76-35.74a.36.36 0 0 1-.09-.51c.12-.17.35-.22.51-.09l51.76 35.74c.17.12.21.35.09.51-.07.1-.18.16-.3.16Z"/><path fill="#272b59" d="M3232.88 1589.65h-.06l-49.39-8.61c-.2-.03-.33-.22-.3-.43.03-.2.23-.33.43-.3l49.39 8.61c.2.03.33.22.3.43-.03.18-.19.31-.36.31ZM3140.27 1624.3a.37.37 0 0 1-.37-.34l-5.48-64.08c-.02-.2.14-.38.34-.4.21 0 .38.13.4.34l5.48 64.08c.02.2-.14.38-.34.4h-.03ZM2870.53 1638.64c-.08 0-.17-.03-.24-.09a.366.366 0 0 1-.04-.52l36.96-43.55c.13-.16.37-.18.52-.04.16.13.17.37.04.52l-36.96 43.55c-.08.09-.18.13-.28.13Z"/><path fill="url(#b)" d="M3127.88 1785.51h-167.66l2.31-8.88c1.17-4.48 5.21-7.61 9.84-7.61h143.36c4.63 0 8.67 3.13 9.84 7.61l2.31 8.88Z"/><path fill="url(#e)" d="M3109.03 1901.58h-129.96l-8.58-116.07h147.12l-8.58 116.07z"/><path fill="url(#f)" d="M2790.29 1810.11c-12.18 0-22.07 13.65-22.07 30.46s9.89 30.5 22.07 30.5 22.07-13.65 22.07-30.5-9.89-30.46-22.07-30.46Zm0 52.31c-6.35 0-13.43-8.99-13.43-21.86s7.08-21.82 13.43-21.82 13.43 8.94 13.43 21.82-7.08 21.86-13.43 21.86Z"/><path fill="url(#g)" d="M2686.41 1786.05H2780a3.06 3.06 0 0 1 3.06 3.06v109.41a3.06 3.06 0 0 1-3.06 3.06h-93.59a3.06 3.06 0 0 1-3.06-3.06v-109.41a3.06 3.06 0 0 1 3.06-3.06Z"/><circle cx="2388.25" cy="643.38" r="151.76" fill="#a0b7ea" transform="rotate(-45 2388.254 643.373)"/><circle cx="2388.25" cy="643.37" r="132.49" fill="#c0cff1"/><path fill="#a0b7ea" d="M2388.25 648.19h-60.83c-2.66 0-4.82-2.16-4.82-4.82s2.16-4.82 4.82-4.82h56.01V534.13c0-2.66 2.16-4.82 4.82-4.82s4.82 2.16 4.82 4.82v109.24c0 2.66-2.16 4.82-4.82 4.82Z"/><path fill="#a0b7ea" d="M2455.9 712.22c-.31 0-.62-.12-.85-.35l-67.65-67.65a1.201 1.201 0 1 1 1.7-1.7l67.65 67.65a1.201 1.201 0 0 1-.85 2.05Z"/><path fill="#172c5c" d="M1989.47 1647.54c.67-5.4 1.3-10.12 1.73-13.3l-1.73 13.3ZM1957.67 1892.83h-.08a.608.608 0 0 1-.52-.68l8.91-68.44c.04-.33.34-.57.68-.52.33.04.56.35.52.68l-8.91 68.44c-.04.3-.3.52-.6.52Z"/><path fill="#c0cff1" d="M1918.87 1951.77h-503.11L1327 1685.08c-15.57-46.78 19.28-95.11 68.62-95.11h365.95c53.75 0 99.72 38.53 109.13 91.43l48.17 270.37Z"/><path fill="#fff" d="M1900.52 1951.77h-2.44L1850.57 1685c-7.71-43.18-45.11-74.54-88.99-74.54h-365.95c-16.85 0-32.18 7.86-42.02 21.49-.43.54-1.16.7-1.7.27-.54-.39-.66-1.12-.27-1.67 10.3-14.29 26.33-22.5 43.99-22.5h365.95c45.04 0 83.45 32.18 91.35 76.52l47.59 267.2Z"/></svg>